<?xml version="1.0" standalone="no"?>
<!DOCTYPE svg PUBLIC "-//W3C//DTD SVG 20010904//EN"
 "http://www.w3.org/TR/2001/REC-SVG-20010904/DTD/svg10.dtd">
<svg version="1.0" xmlns="http://www.w3.org/2000/svg"
 width="1000.000000pt" height="1000.000000pt" viewBox="0 0 1000.000000 1000.000000"
 preserveAspectRatio="xMidYMid meet">
<metadata>
Created by potrace 1.16, written by Peter Selinger 2001-2019
</metadata>
<g transform="translate(0.000000,1000.000000) scale(0.100000,-0.100000)"
fill="#000000" stroke="none">
<path d="M5490 9094 c-19 -2 -78 -9 -130 -15 -113 -13 -846 -133 -1151 -189
-578 -106 -702 -172 -800 -425 -63 -162 -87 -350 -131 -1049 l-3 -40 -245 -53
c-135 -29 -393 -85 -575 -124 -465 -100 -647 -150 -667 -182 -44 -69 63 -105
862 -293 223 -52 518 -121 655 -154 138 -32 428 -100 645 -150 217 -50 440
-101 495 -114 55 -14 233 -54 396 -90 508 -113 728 -143 979 -133 250 10 354
35 1355 322 925 264 1055 308 1055 351 0 40 -85 79 -260 120 -58 13 -150 35
-205 49 -55 13 -264 56 -465 95 -201 39 -408 79 -460 90 -52 10 -139 27 -194
36 -54 10 -100 23 -102 29 -2 5 -12 181 -24 390 -53 970 -87 1208 -194 1354
-26 35 -54 58 -93 77 -49 25 -68 28 -187 31 -104 3 -156 11 -251 35 -114 29
-228 41 -305 32z m-1974 -524 c13 -13 105 -40 116 -34 4 3 8 0 8 -7 0 -8 5 -8
16 2 15 12 15 10 1 -21 -23 -56 -66 -136 -67 -124 0 6 -38 21 -85 35 -95 26
-93 23 -52 104 26 52 43 65 63 45z m2068 -72 c15 -99 16 -146 6 -335 -15 -262
-56 -792 -62 -798 -2 -2 -85 11 -184 31 -543 106 -731 134 -930 141 l-162 6
-6 51 c-3 28 -6 122 -6 209 0 231 32 358 107 429 65 61 208 104 613 182 398
77 594 114 607 115 7 1 14 -14 17 -31z m-315 -1533 c69 -14 126 -27 128 -29 5
-5 -76 -14 -192 -21 -137 -10 -205 -12 -205 -8 0 3 19 24 43 48 48 50 37 49
226 10z"/>
<path d="M1415 6348 c-54 -15 -128 -93 -154 -163 -48 -127 -58 -320 -42 -775
19 -525 70 -1755 81 -1960 28 -496 78 -679 227 -840 120 -130 298 -217 1023
-502 1295 -509 1944 -759 2150 -826 244 -81 386 -95 475 -50 144 75 187 207
205 643 16 373 17 2714 2 2865 -18 169 -43 290 -81 381 -35 85 -89 175 -98
165 -7 -7 -53 33 -53 46 0 5 11 -4 25 -19 13 -15 25 -23 25 -17 0 18 -111 118
-177 158 -67 40 -251 118 -267 113 -5 -2 20 -13 55 -26 97 -35 216 -97 281
-148 33 -25 57 -47 54 -50 -2 -2 -30 16 -61 41 -31 25 -98 66 -149 91 -91 43
-348 133 -490 170 -47 13 -63 21 -51 25 13 5 -2 12 -48 23 -77 20 -88 21 -67
6 17 -12 8 -10 -105 20 -49 13 -63 20 -45 22 13 2 -152 48 -367 103 -219 55
-397 95 -404 91 -7 -5 -10 -4 -6 2 9 14 -84 37 -115 28 -16 -4 -19 -3 -9 3 10
7 -11 15 -70 30 -46 11 -280 70 -519 130 -773 196 -890 221 -1060 227 -75 3
-141 0 -165 -7z m863 -804 c12 -8 22 -23 22 -34 0 -13 12 -25 35 -35 58 -24
62 -42 70 -396 8 -368 11 -354 -81 -325 -29 9 -54 21 -54 27 0 9 33 4 79 -13
48 -17 48 -17 35 425 -6 179 -10 222 -23 238 -19 23 -213 80 -232 69 -16 -10
-3 -613 14 -650 8 -16 27 -28 56 -37 54 -16 82 -39 36 -30 -53 10 -84 25 -100
51 -14 20 -18 78 -27 336 -12 356 -10 366 47 356 30 -6 35 -4 35 12 0 10 3 22
6 25 9 9 53 -2 82 -19z m1039 11 c2 -6 -11 -15 -29 -20 -22 -7 -39 -21 -51
-45 -17 -33 -18 -59 -13 -385 12 -727 15 -774 42 -830 13 -27 35 -58 49 -68
24 -17 362 -127 392 -127 8 0 28 13 44 29 l29 29 -1 274 c-1 150 -4 417 -8
593 -7 356 -7 356 -79 422 -20 18 -32 36 -29 40 12 12 60 -31 92 -81 29 -47
29 -51 36 -230 4 -99 8 -368 9 -597 2 -366 1 -419 -14 -446 -17 -35 -52 -63
-76 -63 -8 0 -97 26 -198 57 -154 48 -189 63 -218 91 -77 75 -80 97 -89 773
-7 460 -6 499 10 533 24 51 91 84 102 51z m-1067 -102 c52 -15 98 -31 102 -37
4 -6 8 -26 8 -43 0 -41 -5 -41 -125 -5 l-90 27 -3 43 c-2 23 0 42 5 42 4 0 50
-12 103 -27z m68 -157 c34 -12 37 -17 40 -54 2 -23 0 -42 -5 -42 -4 0 -48 12
-98 26 -49 14 -96 28 -102 30 -8 2 -13 21 -13 48 l0 44 71 -20 c39 -11 87 -25
107 -32z m1892 34 c41 -12 83 -23 93 -26 9 -3 17 -12 17 -20 0 -17 11 -19 -95
11 -135 37 -160 32 -190 -37 -21 -51 -11 -1115 11 -1195 19 -70 63 -113 139
-136 63 -20 105 -42 105 -56 0 -4 -37 4 -82 18 -65 20 -92 35 -123 66 -74 74
-74 68 -81 716 l-7 576 23 40 c38 68 71 75 190 43z m-671 -133 c42 -35 55
-143 20 -178 -48 -48 -129 32 -129 127 0 12 10 33 21 48 17 22 27 26 48 21 14
-4 32 -12 40 -18z m-1353 4 c16 -6 62 -19 102 -31 l72 -21 0 -45 c0 -38 -3
-45 -16 -40 -8 3 -54 17 -102 31 -47 14 -89 31 -94 37 -9 16 -11 62 -1 71 8 9
5 9 39 -2z m2629 -32 c80 -21 95 -29 137 -70 80 -80 79 -67 76 -745 -3 -564
-4 -590 -23 -621 -10 -18 -34 -40 -52 -48 -32 -15 -39 -15 -126 11 -51 15
-135 41 -187 59 -52 18 -126 41 -164 51 -59 15 -66 19 -51 30 13 10 24 9 53
-3 20 -9 60 -22 87 -30 28 -8 119 -35 203 -60 l154 -46 26 20 c53 39 52 26 52
663 l0 595 -24 51 c-28 60 -52 79 -121 99 -27 8 -76 21 -107 30 -39 11 -58 22
-58 32 0 10 6 14 18 10 9 -2 58 -15 107 -28z m-2556 -125 c47 -15 92 -31 99
-36 6 -6 12 -26 12 -44 0 -42 -6 -43 -125 -6 l-90 28 -3 42 c-2 27 1 42 8 42
7 0 51 -12 99 -26z m9 -138 c45 -14 87 -28 92 -31 15 -9 13 -85 -2 -84 -7 0
-56 15 -108 32 l-95 32 -3 43 c-3 38 -1 43 15 38 10 -3 55 -17 101 -30z m347
-100 c11 -8 25 -12 31 -9 7 2 23 -1 36 -8 13 -7 33 -13 46 -14 13 0 27 -7 32
-15 12 -19 11 -148 -1 -156 -5 -3 -21 2 -35 11 -13 9 -29 13 -34 10 -5 -3 -19
-1 -30 5 -15 8 -20 21 -20 55 0 25 -3 45 -8 45 -4 0 -6 -20 -4 -45 4 -46 4
-46 -23 -39 -22 6 -26 4 -20 -7 5 -8 4 -11 -1 -6 -9 9 -17 153 -9 175 6 16 17
15 40 -2z m-285 -129 c135 -41 308 -94 385 -117 77 -23 143 -45 148 -49 4 -4
1 -15 -6 -24 -13 -19 -2 -22 -222 50 -44 14 -93 29 -110 34 -16 4 -117 35
-223 68 -106 33 -211 65 -233 71 -28 8 -39 16 -39 30 0 21 18 31 40 20 8 -4
125 -42 260 -83z m1199 -122 c48 -24 77 -127 51 -176 -15 -27 -65 -25 -95 5
-22 23 -45 81 -45 119 0 17 41 67 55 67 3 0 19 -7 34 -15z m-1755 -419 c33
-12 62 -29 64 -36 3 -9 -1 -11 -14 -6 -50 20 -142 39 -158 33 -9 -4 -24 -23
-32 -42 -13 -32 -13 -83 1 -448 26 -702 27 -717 59 -771 15 -25 35 -50 45 -55
10 -6 103 -42 207 -82 454 -172 441 -168 470 -123 20 30 20 74 0 759 -12 383
-15 445 -31 475 -30 59 -65 88 -134 111 -69 22 -111 49 -79 49 35 0 151 -49
180 -77 39 -36 65 -94 72 -163 3 -30 10 -251 16 -490 6 -239 12 -472 15 -518
8 -128 -21 -202 -80 -202 -13 0 -160 51 -326 114 -216 82 -310 122 -331 143
-36 34 -64 86 -72 133 -3 19 -15 279 -26 577 -18 490 -19 546 -5 579 29 69 62
78 159 40z m1346 -446 c122 -40 176 -62 178 -73 3 -12 -38 -2 -192 49 -179 60
-197 64 -223 52 -51 -24 -51 -34 -36 -658 l14 -575 25 -52 c14 -29 37 -61 52
-71 15 -10 113 -51 217 -90 105 -39 388 -145 630 -237 898 -340 1127 -425
1142 -425 8 0 28 13 44 29 l29 29 0 632 c0 694 2 671 -62 737 -26 27 -67 44
-245 104 -153 51 -213 75 -213 86 0 10 5 13 18 8 9 -3 104 -36 211 -71 109
-36 208 -75 227 -89 18 -14 45 -51 61 -82 l28 -58 3 -615 c2 -417 0 -627 -8
-652 -11 -39 -60 -88 -89 -88 -19 0 -4 -6 -1165 434 -445 169 -822 316 -837
327 -16 11 -42 48 -58 82 l-30 62 -10 405 c-20 737 -19 784 5 817 26 35 63 54
89 46 11 -3 99 -31 195 -63z m-1380 -92 l-23 -8 8 -263 c4 -165 11 -271 18
-287 10 -20 37 -34 126 -67 62 -24 117 -40 123 -37 9 6 2 434 -8 514 -1 14 -3
30 -3 37 -1 7 -11 21 -23 33 -12 11 -19 22 -16 25 3 3 17 -8 32 -25 22 -26 26
-42 27 -93 0 -34 4 -154 8 -267 5 -118 4 -212 -1 -222 -12 -25 -30 -23 -137
18 -116 43 -128 50 -140 73 -6 10 -15 139 -21 286 -11 244 -10 268 5 285 10
11 24 16 33 13 12 -5 11 -8 -8 -15z m354 -107 c3 -5 -4 -11 -15 -14 -21 -6
-21 -8 -14 -269 3 -145 11 -275 17 -290 7 -20 24 -33 62 -47 28 -10 81 -30
118 -44 54 -21 69 -23 78 -13 7 9 9 70 5 187 -12 367 -12 369 -37 397 -13 14
-17 23 -9 20 8 -2 23 -15 32 -29 16 -21 19 -59 25 -299 6 -252 5 -276 -10
-289 -19 -16 -41 -10 -185 48 -97 39 -99 43 -106 266 -3 105 -8 223 -11 263
-4 57 -2 78 10 98 17 25 31 30 40 15z"/>
<path d="M8550 6113 c-130 -22 -345 -83 -895 -255 -656 -205 -843 -270 -1024
-360 -104 -51 -137 -73 -197 -133 -59 -58 -82 -89 -118 -166 -118 -245 -125
-351 -147 -2168 -12 -954 -9 -1432 11 -1560 29 -187 103 -281 222 -281 112 1
320 79 733 275 66 32 165 79 220 105 288 137 778 377 877 431 421 228 512 370
557 864 26 277 100 2016 108 2515 6 381 0 488 -34 584 -24 65 -84 133 -131
146 -36 10 -132 11 -182 3z"/>
<path d="M6081 3498 c-1 -61 -2 -62 -53 -58 -26 1 -28 -1 -28 -39 0 -39 2 -41
30 -41 28 0 30 -2 30 -40 0 -22 -4 -40 -10 -40 -6 0 -10 -47 -10 -120 0 -73 4
-120 10 -120 6 0 10 -33 10 -80 0 -72 10 -101 23 -67 10 24 7 -22 -3 -49 -6
-16 -7 -31 -1 -38 5 -6 12 -47 16 -90 6 -63 5 -77 -5 -71 -16 10 -6 -124 14
-200 l14 -50 0 82 c0 58 -4 81 -12 76 -8 -5 -8 -3 -1 8 9 12 12 186 6 357 -1
42 -16 57 -24 25 -3 -10 -5 -2 -6 18 -1 34 18 66 32 53 3 -3 3 19 0 50 -4 34
-2 56 4 56 6 0 10 35 10 83 0 66 -1 73 -6 35 -10 -67 -21 -71 -23 -7 l-1 54
-8 -45 c-6 -35 -7 -28 -4 31 3 42 7 85 11 95 5 16 4 16 -5 4 -8 -12 -11 -5
-11 30 0 27 4 40 9 32 4 -7 6 13 4 45 -6 80 -11 89 -12 21z"/>
<path d="M1580 2471 c0 -6 10 -16 23 -21 12 -5 16 -9 8 -9 -11 -1 -11 -4 -1
-16 7 -8 17 -12 23 -8 5 3 7 2 4 -4 -16 -25 122 -123 292 -208 166 -83 439
-194 1741 -710 1302 -516 1503 -588 1780 -636 117 -21 455 -18 560 4 180 38
335 93 580 207 580 269 1594 774 1710 851 80 53 298 248 279 249 -4 0 -35 -23
-70 -51 -107 -86 -263 -171 -664 -364 -71 -35 -197 -95 -280 -135 -976 -471
-1023 -490 -1182 -490 -137 0 -202 59 -237 212 -14 60 -19 136 -32 463 -7 178
-7 154 0 268 4 54 3 96 -1 94 -4 -3 -6 30 -3 74 3 43 2 79 -2 79 -5 0 -8 21
-9 48 0 26 -4 56 -9 67 -5 13 -7 -7 -4 -51 l4 -71 -25 5 c-25 4 -25 4 -25 -77
l0 -81 -28 0 -29 0 5 -80 c4 -69 2 -80 -12 -80 -13 0 -16 13 -16 80 0 62 -3
80 -14 80 -21 0 -26 -23 -26 -110 0 -70 2 -79 20 -85 11 -3 20 -11 20 -16 0
-5 9 -9 20 -9 11 0 20 -4 20 -10 0 -5 -9 -10 -20 -10 -17 0 -20 -7 -20 -40 0
-25 5 -40 12 -40 7 0 2 -7 -11 -16 -17 -12 -22 -24 -19 -44 3 -20 0 -26 -8
-23 -7 3 -15 21 -17 41 l-4 37 -1 -37 c-1 -26 -7 -38 -17 -38 -19 0 -21 -76
-2 -83 7 -2 8 -8 3 -13 -5 -5 -11 -4 -13 4 -10 28 -25 10 -19 -23 5 -26 3 -40
-9 -51 -11 -12 -15 -12 -15 -2 0 23 -20 -15 -20 -39 0 -20 -9 -27 -31 -25 -6
1 -15 -32 -19 -66 -3 -23 -34 -41 -61 -35 -18 3 -29 1 -29 -6 0 -20 -34 -51
-55 -51 -12 0 -30 -7 -41 -15 -10 -8 -31 -15 -46 -15 -18 0 -28 -5 -28 -15 0
-15 -6 -16 -80 -20 -62 -3 -68 -5 -86 -22 -16 -16 -16 -16 -10 5 5 14 -13 2
-51 -37 -76 -75 -128 -94 -250 -89 -49 2 -93 7 -100 11 -6 4 -18 4 -27 1 -9
-3 -24 0 -33 7 -21 18 -103 39 -122 31 -10 -4 -12 -1 -6 8 5 9 4 11 -3 6 -6
-4 -23 1 -37 10 -14 9 -32 14 -40 10 -8 -3 -15 -1 -15 4 0 6 -8 10 -17 10 -10
1 -36 9 -58 20 -22 11 -50 19 -62 20 -12 0 -23 4 -25 9 -6 15 -48 24 -48 9 -1
-9 -4 -9 -13 3 -10 13 -72 49 -84 49 -2 0 -1 -5 3 -11 4 -7 -7 -2 -24 11 -20
15 -39 21 -55 18 -17 -3 -24 -1 -21 7 5 12 -70 41 -93 36 -7 -1 -13 3 -13 10
0 6 -7 9 -15 5 -8 -3 -15 -1 -15 3 0 5 -7 12 -16 15 -12 4 -15 2 -10 -9 4 -12
2 -13 -14 -3 -11 7 -15 15 -9 18 5 4 -6 11 -26 17 -24 8 -35 8 -35 1 0 -6 -8
-4 -18 5 -10 10 -22 14 -26 10 -4 -5 -14 1 -22 11 -8 11 -14 16 -14 12 0 -5
-7 -3 -15 4 -8 6 -18 9 -24 6 -5 -3 -11 -1 -13 5 -5 15 -96 49 -114 42 -8 -3
-16 2 -20 10 -3 9 -13 13 -26 9 -16 -4 -19 -2 -13 8 6 10 2 11 -16 7 -13 -3
-31 -2 -39 4 -11 8 -9 9 9 4 14 -4 21 -3 18 3 -6 8 -72 29 -150 46 -15 4 -25
10 -22 15 8 14 -26 22 -41 10 -12 -10 -13 -9 -8 5 6 15 -5 20 -43 19 -7 -1
-10 4 -6 10 4 6 -2 8 -15 5 -14 -4 -22 -2 -22 7 0 7 -11 16 -24 19 -13 3 -32
8 -43 11 -10 3 -4 -1 12 -9 25 -13 26 -15 9 -16 -11 0 -29 9 -40 21 -23 25
-79 50 -119 54 -56 4 -95 17 -95 30 0 7 -7 16 -16 19 -8 3 -12 2 -9 -4 3 -6
-1 -7 -9 -4 -9 3 -16 11 -16 16 0 6 -7 7 -16 4 -8 -3 -13 -2 -10 3 3 5 -1 11
-9 15 -8 3 -14 2 -12 -2 1 -4 -3 -7 -8 -7 -6 0 -9 3 -8 7 4 12 -33 28 -56 23
-31 -6 -57 5 -39 16 8 6 1 9 -22 9 -26 0 -31 3 -20 10 12 8 8 10 -15 11 -16 1
-36 1 -42 0 -7 -1 -13 5 -13 14 0 16 -15 20 -64 16 -20 -2 -27 1 -24 11 3 8
-10 20 -31 30 -44 21 -66 23 -31 3 31 -17 24 -19 -19 -4 -18 7 -28 14 -23 18
6 3 -8 14 -30 23 -32 14 -39 15 -34 3 3 -9 0 -12 -9 -9 -8 3 -13 11 -12 17 1
6 -7 13 -18 15 -11 2 -53 20 -94 39 -41 19 -102 43 -135 54 -34 12 -66 25 -71
29 -6 5 -23 13 -37 19 -23 9 -26 8 -22 -7 5 -14 2 -13 -13 3 -25 27 -69 49
-86 42 -17 -6 -70 26 -60 37 5 4 1 6 -7 4 -8 -2 -18 -7 -22 -13 -4 -6 -8 -2
-8 8 0 9 -4 18 -10 18 -21 3 -26 5 -51 22 -15 10 -40 19 -56 20 -20 1 -29 6
-26 15 3 8 0 10 -10 6 -8 -3 -18 -1 -22 5 -3 6 -1 11 6 11 7 0 9 3 6 6 -4 4
-13 1 -21 -5 -9 -7 -24 -10 -37 -6 -16 5 -18 9 -8 15 7 5 17 6 21 4 15 -9 8 3
-9 17 -11 10 -14 10 -9 2 10 -18 -5 -16 -32 3 -12 8 -22 12 -22 8 0 -3 -7 -1
-15 6 -11 9 -15 9 -15 1z"/>
</g>
</svg>
